# xmcd CD database file
#
# Track frame offsets:
#	150
#	12060
#	26305
#	50037
#	56932
#	84354
#	101920
#	116392
#	129822
#	139545
#	162407
#	182584
#	199117
#	218170
#
# Disc length: 3084 seconds
#
# Revision: 0
# Processed by: cddbd v1.5.1PL2 Copyright (c) Steve Scherf et al.
# Submitted via: CDex 1.70beta1
#
DISCID=b70c0a0e
DTITLE=Fast Eddie Erickson and Bill Dendle - Read Before Using
DYEAR=1995
DGENRE=Jazz
TTITLE0=My Canary Has Circles Under His Eyes
TTITLE1=Limehouse Blues
TTITLE2=Old Rockin' Chair
TTITLE3=Philosophy 1A
TTITLE4=Do You Know What It Means to Miss New Orleans?
TTITLE5=Sam, You Made The Pants Too Long
TTITLE6=Handful of Keys
TTITLE7=Old Green River
TTITLE8=C'est Si Bon
TTITLE9=Medley: Once In A While
TTITLE10=Read Before Using
TTITLE11=I've Found A New Baby
TTITLE12=What a Wonderful World
TTITLE13=Tiger Rag
EXTD=YEAR: 1995
EXTT0=
EXTT1=
EXTT2=
EXTT3=
EXTT4=
EXTT5=
EXTT6=
EXTT7=
EXTT8=
EXTT9=
EXTT10=
EXTT11=
EXTT12=
EXTT13=
PLAYORDER=
